<svg xmlns="http://www.w3.org/2000/svg" viewBox="0 0 80 80" width="80" height="80">
  <!-- Husky — pointy ears, blue eyes, mask markings -->
  <circle cx="40" cy="44" r="28" fill="#94a3b8"/>
  <polygon points="16,34 20,8 32,30" fill="#64748b"/>
  <polygon points="64,34 60,8 48,30" fill="#64748b"/>
  <polygon points="19,30 20,14 29,28" fill="#fca5a5" opacity="0.35"/>
  <polygon points="61,30 60,14 51,28" fill="#fca5a5" opacity="0.35"/>
  <!-- White face mask -->
  <path d="M28 32 Q40 28 52 32 L48 60 Q40 66 32 60 Z" fill="white"/>
  <!-- Nose -->
  <ellipse cx="40" cy="46" rx="4.5" ry="3" fill="#292524"/>
  <!-- Blue eyes -->
  <circle cx="30" cy="36" r="4.5" fill="white"/>
  <circle cx="50" cy="36" r="4.5" fill="white"/>
  <circle cx="31.5" cy="36.5" r="2.8" fill="#3b82f6"/>
  <circle cx="51.5" cy="36.5" r="2.8" fill="#3b82f6"/>
  <circle cx="32.5" cy="35.5" r="1.2" fill="white"/>
  <circle cx="52.5" cy="35.5" r="1.2" fill="white"/>
  <path d="M36 52 Q40 55 44 52" fill="none" stroke="#475569" stroke-width="1.3" stroke-linecap="round"/>
</svg>