<svg xmlns="http://www.w3.org/2000/svg" viewBox="0 0 80 80" width="80" height="80">
  <!-- German Shepherd — big alert ears, tan+black -->
  <circle cx="40" cy="44" r="28" fill="#b45309"/>
  <polygon points="14,36 20,4 32,30" fill="#292524"/>
  <polygon points="66,36 60,4 48,30" fill="#292524"/>
  <polygon points="17,32 20,10 29,28" fill="#fca5a5" opacity="0.25"/>
  <polygon points="63,32 60,10 51,28" fill="#fca5a5" opacity="0.25"/>
  <!-- Dark saddle marking -->
  <path d="M22 30 Q40 22 58 30 Q56 38 40 36 Q24 38 22 30 Z" fill="#292524" opacity="0.5"/>
  <!-- Muzzle -->
  <ellipse cx="40" cy="52" rx="14" ry="10" fill="#d4a574"/>
  <ellipse cx="40" cy="48" rx="4.5" ry="3" fill="#292524"/>
  <!-- Eyes — alert -->
  <circle cx="30" cy="38" r="3.5" fill="#fbbf24"/>
  <circle cx="50" cy="38" r="3.5" fill="#fbbf24"/>
  <circle cx="31" cy="38.5" r="2" fill="#292524"/>
  <circle cx="51" cy="38.5" r="2" fill="#292524"/>
  <circle cx="31.8" cy="37.8" r="0.8" fill="white"/>
  <circle cx="51.8" cy="37.8" r="0.8" fill="white"/>
  <path d="M36 54 Q40 57 44 54" fill="none" stroke="#78350f" stroke-width="1.3" stroke-linecap="round"/>
</svg>