<svg xmlns="http://www.w3.org/2000/svg" viewBox="0 0 80 80" width="80" height="80">
  <!-- Border Collie — black & white split, alert ears -->
  <circle cx="40" cy="42" r="28" fill="#1e293b"/>
  <!-- Tipped ears -->
  <polygon points="14,34 20,8 30,30" fill="#1e293b"/>
  <polygon points="66,34 60,8 50,30" fill="#1e293b"/>
  <!-- White blaze down center -->
  <path d="M36 14 Q40 12 44 14 L46 44 Q44 66 40 68 Q36 66 34 44 Z" fill="white"/>
  <!-- White muzzle -->
  <ellipse cx="40" cy="52" rx="14" ry="10" fill="white"/>
  <ellipse cx="40" cy="48" rx="4" ry="3" fill="#292524"/>
  <!-- Eyes — super alert, smart -->
  <circle cx="28" cy="36" r="4" fill="white"/>
  <circle cx="52" cy="36" r="4" fill="white"/>
  <circle cx="30" cy="36.5" r="2.5" fill="#78350f"/>
  <circle cx="54" cy="36.5" r="2.5" fill="#78350f"/>
  <circle cx="31" cy="35.5" r="1" fill="white"/>
  <circle cx="55" cy="35.5" r="1" fill="white"/>
  <path d="M36 54 Q40 58 44 54" fill="none" stroke="#475569" stroke-width="1.3" stroke-linecap="round"/>
</svg>